# xmcd CD database file
#
# Track frame offsets:
#	150
#	32015
#	63558
#	84510
#	112070
#	136276
#	167098
#	189392
#	219282
#	244623
#
# Disc length: 3560 seconds
#
# Revision: 0
# Processed by: cddbd v1.5PL3 Copyright (c) Steve Scherf et al.
# Submitted via: CDex 1.51
#
DISCID=850de60a
DTITLE=John St. John - Loon Lake
DYEAR=1993
DGENRE=New Age
TTITLE0=The Pond
TTITLE1=Water Birds
TTITLE2=Nightfall
TTITLE3=Sparkling Waters
TTITLE4=Darkness
TTITLE5=Loon Lagoon
TTITLE6=Bird Dance
TTITLE7=Twilight
TTITLE8=Rain
TTITLE9=The Brook
EXTD=YEAR: 1993
EXTT0=
EXTT1=
EXTT2=
EXTT3=
EXTT4=
EXTT5=
EXTT6=
EXTT7=
EXTT8=
EXTT9=
PLAYORDER=
